<?xml version="1.0" encoding="UTF-8"?>
<svg id="Capa_2" data-name="Capa 2" xmlns="http://www.w3.org/2000/svg" viewBox="0 0 98.96 87.69">
  <defs>
    <style>
      .cls-1 {
        fill: none;
        stroke: #73a257;
        stroke-linecap: round;
        stroke-linejoin: round;
        stroke-width: 9.15px;
      }
    </style>
  </defs>
  <g id="Capa_1-2" data-name="Capa 1">
    <path class="cls-1" d="M4.58,11.1c11.51-7.33,25.44-8.7,36.28-3.02,12.79,6.7,20.93,23.02,16.21,32.27-1.74,3.42-5.75,6.87-10.1,6.78-4.82-.1-9.35-4.54-10.49-8.82-3.08-11.57,15.42-33.57,34.81-31.24,9.1,1.09,17.38,7.43,21.02,15.4,8.22,18.02-10.21,38.08-15.07,43.37-6.28,6.83-16.43,17.88-30.45,17.23-13.38-.62-22.23-11.53-27.84-18.45-9.49-11.7-12.23-23.92-13.17-30.16"/>
  </g>
</svg>