<?xml version="1.0" encoding="UTF-8"?>
<svg id="Capa_2" data-name="Capa 2" xmlns="http://www.w3.org/2000/svg" viewBox="0 0 287.91 103.05">
  <defs>
    <style>
      .cls-1 {
        fill: #f5eee2;
        stroke-width: 0px;
      }
    </style>
  </defs>
  <g id="Capa_1-2" data-name="Capa 1">
    <g>
      <g>
        <path class="cls-1" d="M12.01,101.43v1.48h-7.34v-9.51h7.15v1.48h-5.33v2.47h4.73v1.45h-4.73v2.62h5.52Z"/>
        <path class="cls-1" d="M16.41,93.41h1.82v8.01h5.12v1.49h-6.94v-9.51Z"/>
        <path class="cls-1" d="M32.56,101.91l.63-1.37c.78.61,2.03,1.05,3.23,1.05,1.52,0,2.17-.53,2.17-1.24,0-2.05-5.82-.71-5.82-4.24,0-1.53,1.26-2.84,3.94-2.84,1.17,0,2.41.3,3.26.84l-.57,1.37c-.88-.5-1.85-.75-2.7-.75-1.51,0-2.13.57-2.13,1.29,0,2.02,5.8.71,5.8,4.2,0,1.52-1.27,2.82-3.96,2.82-1.52,0-3.05-.46-3.86-1.14Z"/>
      </g>
      <path class="cls-1" d="M53.18,97.65v5.27h-1.82v-2.44h-5.09v2.44h-1.79v-5.27c0-2.85,1.75-4.37,4.35-4.37s4.35,1.52,4.35,4.37ZM51.36,98.99v-1.51c0-1.81-.99-2.66-2.54-2.66s-2.54.86-2.54,2.66v1.51h5.09Z"/>
      <g>
        <path class="cls-1" d="M66.8,100.33c0,1.63-1.31,2.58-3.83,2.58h-4.87v-9.51h4.59c2.35,0,3.61.96,3.61,2.47,0,.98-.5,1.7-1.26,2.09,1.05.33,1.76,1.13,1.76,2.36ZM59.92,94.79v2.62h2.57c1.26,0,1.97-.43,1.97-1.3s-.71-1.32-1.97-1.32h-2.57ZM64.97,100.16c0-.95-.74-1.37-2.11-1.37h-2.94v2.74h2.94c1.37,0,2.11-.42,2.11-1.37Z"/>
        <path class="cls-1" d="M70.42,98.16c0-2.81,2.24-4.89,5.27-4.89s5.27,2.06,5.27,4.89-2.24,4.89-5.27,4.89-5.27-2.08-5.27-4.89ZM79.13,98.16c0-1.94-1.47-3.34-3.44-3.34s-3.44,1.4-3.44,3.34,1.47,3.34,3.44,3.34,3.44-1.4,3.44-3.34Z"/>
        <path class="cls-1" d="M91.66,102.91l-2-2.78c-.13.01-.25.01-.38.01h-2.21v2.77h-1.82v-9.51h4.03c2.57,0,4.17,1.28,4.17,3.38,0,1.44-.76,2.5-2.08,3l2.25,3.12h-1.96ZM89.19,94.9h-2.13v3.79h2.13c1.59,0,2.42-.71,2.42-1.9s-.83-1.89-2.42-1.89Z"/>
        <path class="cls-1" d="M104.08,93.41h4.28c3.17,0,5.34,1.9,5.34,4.75s-2.17,4.75-5.34,4.75h-4.28v-9.51ZM108.28,101.42c2.18,0,3.59-1.29,3.59-3.26s-1.41-3.26-3.59-3.26h-2.38v6.52h2.38Z"/>
        <path class="cls-1" d="M125.35,101.43v1.48h-7.34v-9.51h7.15v1.48h-5.33v2.47h4.73v1.45h-4.73v2.62h5.52Z"/>
        <path class="cls-1" d="M135.97,93.41h1.82v8.01h5.12v1.49h-6.94v-9.51Z"/>
      </g>
      <path class="cls-1" d="M155.36,97.65v5.27h-1.82v-2.44h-5.09v2.44h-1.79v-5.27c0-2.85,1.75-4.37,4.35-4.37s4.35,1.52,4.35,4.37ZM153.55,98.99v-1.51c0-1.81-.99-2.66-2.54-2.66s-2.54.86-2.54,2.66v1.51h5.09Z"/>
      <path class="cls-1" d="M175.22,93.41v9.51h-1.5l-5.4-6.44v6.44h-1.8v-9.51h1.5l5.4,6.44v-6.44h1.8Z"/>
      <path class="cls-1" d="M188.83,97.65v5.27h-1.82v-2.44h-5.09v2.44h-1.79v-5.27c0-2.85,1.75-4.37,4.35-4.37s4.35,1.52,4.35,4.37ZM187.01,98.99v-1.51c0-1.81-.99-2.66-2.54-2.66s-2.54.86-2.54,2.66v1.51h5.09Z"/>
      <g>
        <path class="cls-1" d="M195.56,94.9h-3.25v-1.49h8.31v1.49h-3.25v8.01h-1.82v-8.01Z"/>
        <path class="cls-1" d="M204.1,98.77v-5.37h1.82v5.3c0,1.96.91,2.8,2.49,2.8s2.48-.84,2.48-2.8v-5.3h1.79v5.37c0,2.77-1.61,4.28-4.28,4.28s-4.29-1.51-4.29-4.28Z"/>
        <path class="cls-1" d="M223.99,102.91l-2-2.78c-.13.01-.25.01-.38.01h-2.21v2.77h-1.82v-9.51h4.03c2.57,0,4.17,1.28,4.17,3.38,0,1.44-.76,2.5-2.08,3l2.25,3.12h-1.96ZM221.53,94.9h-2.13v3.79h2.13c1.59,0,2.42-.71,2.42-1.9s-.83-1.89-2.42-1.89Z"/>
      </g>
      <path class="cls-1" d="M238.8,97.65v5.27h-1.82v-2.44h-5.09v2.44h-1.79v-5.27c0-2.85,1.75-4.37,4.35-4.37s4.35,1.52,4.35,4.37ZM236.98,98.99v-1.51c0-1.81-.99-2.66-2.54-2.66s-2.54.86-2.54,2.66v1.51h5.09Z"/>
      <g>
        <path class="cls-1" d="M243.72,93.41h1.82v8.01h5.12v1.49h-6.94v-9.51Z"/>
        <path class="cls-1" d="M261.81,101.43v1.48h-7.34v-9.51h7.15v1.48h-5.33v2.47h4.73v1.45h-4.73v2.62h5.52Z"/>
        <path class="cls-1" d="M273.82,101.42v1.49h-8.35v-1.18l5.76-6.83h-5.66v-1.49h8.07v1.18l-5.76,6.83h5.94Z"/>
      </g>
      <path class="cls-1" d="M286.47,97.65v5.27h-1.82v-2.44h-5.09v2.44h-1.79v-5.27c0-2.85,1.75-4.37,4.35-4.37s4.35,1.52,4.35,4.37ZM284.65,98.99v-1.51c0-1.81-.99-2.66-2.54-2.66s-2.54.86-2.54,2.66v1.51h5.09Z"/>
      <path class="cls-1" d="M15.55,75.64c-.81-2.31-1.5-4.66-2.06-7.03-.26-1.09-.49-2.19-.69-3.29-.1-.53-.19-1.05-.27-1.58-.04-.23-.07-.45-.1-.68-.01-.1-.08-.52-.02-.13.06.42-.02-.13-.03-.22-.45-3.48-.62-6.99-.48-10.49.11-2.67.38-5.35.73-8,.01-.09.03-.18.04-.28,0-.05-.09.65-.05.35.03-.19.05-.38.08-.56.06-.41.13-.82.2-1.22.14-.79.29-1.58.46-2.36.35-1.59.78-3.16,1.34-4.69.14-.39.29-.78.45-1.16.03-.07.06-.14.09-.22.17-.41-.07.17-.09.2.11-.2.19-.43.29-.64.35-.75.75-1.48,1.18-2.18.2-.33.41-.65.64-.97.12-.17.24-.33.36-.5.05-.07.14-.16.19-.24-.1.17-.36.44-.09.11.53-.63,1.1-1.23,1.72-1.78.16-.14.31-.27.47-.4.06-.05.12-.1.18-.15.34-.28-.14.11-.18.13.39-.21.74-.52,1.12-.75.53-.32,1.07-.63,1.62-.9.18-.09.36-.18.55-.26.07-.03.15-.06.22-.1.41-.19-.15.07-.19.08.48-.12.93-.34,1.41-.46.21-.05.41-.1.62-.14-.02,0,.36-.07.36-.06,0,0-.61.06-.17.03.25-.02.5-.03.75-.03.13,0,.25.01.38.01.52.01-.4-.09-.06-.02.22.05.44.08.66.14.13.04.25.08.38.12.52.16-.12,0-.13-.06.02.05.5.26.57.29.1.05.19.11.28.17.05.03.09.06.14.09.19.13.19.13,0,0-.05-.03-.09-.07-.14-.1.07.05.14.11.2.16.07.06.13.11.2.17.17.16.33.33.5.5.36.37-.1-.12-.09-.12.03,0,.21.3.2.29.06.1.13.2.18.3.05.08.27.55.1.16-.15-.34-.03-.06,0,.02.03.12.07.23.1.34,0-.01.09.34.08.35-.02.01-.03-.59-.04-.15,0,.12,0,.25,0,.37.02.43-.1-.19.04-.17.03,0-.19.71-.2.76-.06.27.1-.21.11-.23-.06.08-.1.22-.16.31-.11.2-.24.39-.37.59-.22.35.08-.17.11-.12,0,0-.24.28-.23.26-.17.19-.35.37-.55.54-.13.11-.36.23-.45.37.18-.3.4-.28.16-.13-.09.05-.17.11-.26.17-.17.1-.34.2-.51.29-.07.04-.25.1-.29.14.08-.09.5-.18.14-.06-.23.08-.45.15-.69.21-.13.03-.63.05-.7.14.04-.05.68-.05.19-.04-.12,0-.24.02-.35.02-.24,0-.47,0-.71,0-.13,0-.62-.12-.71-.06.16-.1.57.09.19.02-.12-.02-.24-.04-.35-.07-.47-.09-.93-.22-1.39-.36-.45-.14-.88-.34-1.33-.48.06.02.59.26.17.07-.1-.05-.21-.09-.31-.14-.2-.09-.41-.19-.61-.28-1.37-.66-2.71-1.44-3.98-2.28-.38-.25-.75-.51-1.11-.77-.09-.07-.18-.14-.28-.2,0,0,.44.33.2.15-.21-.16-.42-.32-.62-.49-.75-.6-1.48-1.22-2.18-1.88-.71-.66-1.4-1.35-2.06-2.07-.33-.36-.65-.72-.96-1.09-.14-.16-.27-.32-.4-.49-.06-.08-.3-.4-.07-.08.25.34-.06-.08-.12-.15-1.1-1.44-2.05-2.97-2.83-4.6-.09-.18-.07-.38.08.2-.02-.09-.08-.2-.12-.29-.07-.17-.13-.33-.19-.5-.14-.39-.27-.79-.37-1.2-.09-.34-.14-.69-.21-1.04-.07-.33.06.63.04.29,0-.09-.02-.18-.03-.27-.02-.2-.02-.4-.03-.6,0-.17,0-.35.01-.52,0-.12.08-.68,0-.16-.07.54.03-.1.05-.21.04-.18.09-.37.15-.55.08-.25.35-.66-.05.04.05-.09.08-.18.13-.27.11-.22.24-.43.37-.63.22-.34.57-.65.03-.07.18-.19.34-.4.53-.58.17-.17.35-.33.53-.49.1-.09.2-.17.3-.25.04-.03.08-.06.12-.09.33-.28-.59.42-.23.17.98-.68,2-1.24,3.09-1.73.5-.23-.3.11-.15.06.15-.06.3-.12.45-.18.33-.12.66-.24,1-.35.66-.21,1.33-.4,2-.56.68-.16,1.37-.31,2.06-.42.18-.03.37-.06.55-.09.1-.02.81-.11.26-.04-.51.06.07,0,.2-.02.21-.02.43-.05.64-.07,1.56-.15,3.13-.2,4.7-.14.8.03,1.61.08,2.41.17.2.02.4.04.6.07.6.07-.52-.08-.04,0,.43.06.85.13,1.28.2,1.61.29,3.19.69,4.74,1.22.36.12.72.26,1.08.39.09.04.19.08.28.11-.68-.22-.39-.16-.23-.09.21.09.42.18.63.27.74.33,1.47.7,2.17,1.1.7.4,1.39.84,2.05,1.31.06.04.12.09.19.13.36.25-.16-.12-.19-.14.15.14.32.25.48.38.34.27.67.55.98.84.65.59,1.26,1.22,1.83,1.88.13.15.31.31.4.48-.23-.46-.21-.27-.09-.11.07.1.15.19.22.29.29.39.57.8.84,1.21.55.84,1.04,1.72,1.47,2.62.11.23.23.46.32.69-.25-.68.04.12.09.26.19.48.36.97.52,1.46.31.99.56,2.01.73,3.04.02.12.05.26.06.39-.04-.63-.04-.26-.02-.12.03.26.06.52.08.79.04.53.06,1.06.06,1.59,0,.53-.03,1.07-.07,1.6-.02.24-.05.47-.08.7-.04.38.08-.48.01-.1-.03.17-.06.34-.09.5-.2,1.04-.48,2.06-.85,3.05-.07.2-.15.39-.23.58-.07.17-.23.36.09-.2-.05.09-.09.19-.13.29-.18.38-.36.75-.56,1.12-.4.74-.85,1.45-1.34,2.13-.12.17-.25.34-.38.51-.12.16-.31.25.13-.16-.07.07-.14.17-.2.25-.27.33-.56.65-.85.96-.59.63-1.22,1.23-1.88,1.78-.17.14-.34.28-.51.42-.1.08-.59.45-.25.2.37-.27-.25.18-.33.23-.2.14-.41.29-.62.42-.75.5-1.53.95-2.32,1.37-.38.2-.76.39-1.15.56-.21.1-.42.19-.63.28-.09.04-.46.19-.08.03.43-.17-.11.04-.16.06-.88.34-1.77.63-2.68.88-.93.26-1.87.46-2.82.62-.24.04-.48.08-.72.11-.5.08.6-.07-.1.01-.52.06-1.05.11-1.58.14-1.99.12-3.98.04-5.95-.21-.64-.08-1.49.35-1.92.77-.47.46-.83,1.21-.8,1.87.03.68.26,1.39.8,1.87.57.51,1.16.68,1.92.77,8.61,1.11,17.72-1.32,24.17-7.06,2.98-2.65,5.25-6.03,6.52-9.76,1.56-4.61,1.37-9.78-.23-14.36-1.44-4.11-3.88-7.99-7.24-10.88-2.92-2.5-6.35-4.3-10.05-5.48C25.41-.41,17.85-.58,11.21,1.33c-2.86.82-5.65,2.08-7.89,4.03C.98,7.41-.29,10.37.06,13.44c.48,4.2,2.76,7.86,5.42,11.11,2.62,3.2,5.85,6.03,9.43,8.2,3.32,2.01,7.31,4.03,11.35,3.65,2.48-.23,4.78-1.25,6.5-3.04,1.9-1.98,2.93-4.73,2.12-7.41-.74-2.45-2.77-4.46-5.16-5.45-2.4-.98-5.09-.88-7.52-.02-3.74,1.33-6.86,3.68-9.22,6.78-2.24,2.95-3.61,6.53-4.52,10.06-.85,3.31-1.29,6.7-1.63,10.09-.75,7.52-.35,15.01,1.37,22.39.57,2.45,1.28,4.87,2.11,7.24.46,1.31,1.89,2.3,3.35,1.85,1.34-.42,2.39-1.85,1.9-3.25"/>
      <path class="cls-1" d="M124.14,73.16c-.51-1.01-1.76-1.54-2.94-1.18-1.08.55-2.21.98-3.37,1.29-1.16.31-2.33.47-3.49.47-2.17,0-3.89-.45-5.17-1.34,3.56-2.41,6.1-4.65,7.61-6.71,1.5-2.06,2.25-4.34,2.25-6.83,0-1.83-.38-3.44-1.14-4.84-.76-1.4-1.83-2.5-3.19-3.3-1.36-.8-2.92-1.2-4.69-1.2-2.08,0-3.95.54-5.59,1.61-1.65,1.07-2.93,2.53-3.85,4.38-.92,1.85-1.38,3.98-1.38,6.39,0,3.58.78,6.7,2.34,9.34-1.6.9-3,1.53-4.21,1.9-1.2.37-2.39.56-3.55.56s-2.11-.44-2.74-1.32c-.62-.87-.93-2.44-.93-4.7v-9.4c0-2.69-.62-4.82-1.87-6.39-1.24-1.58-2.94-2.37-5.11-2.37-.56,0-1.23.05-2.02.15-.78.1-1.81.28-3.09.55-2.05.47-3.67.72-4.87.76.49-1.67-.04-3.41-1.31-4.37-1.06-.8-2.72-1.17-4.07-.45-1.36.74-1.65,2.24-1.75,2.7-.56,2.82,1.87,5.09,2.14,5.33.1.36.22.86.3,1.46,0,0,.12.9.12,1.93,0,2.99-.41,5.72-1.23,8.17-.82,2.45-1.92,4.39-3.31,5.81-1.3,1.34-2.77,2.05-4.41,2.13-.11-.02-.23-.03-.35-.03-1.56,0-2.67-.57-3.34-1.73-.66-1.14-.99-2.75-.99-4.82v-14.96c-.06-1.56-1.43-2.74-2.92-2.64-1.36.09-2.5,1.23-2.55,2.64v9.12c0,8.13-2.87,12.2-8.6,12.2-2.4,0-4.17-.77-5.29-2.31-1.12-1.53-1.69-4-1.69-7.39v-8.24c-.19-1.55-1.61-2.62-3.05-2.47-1.23.13-2.27,1.16-2.42,2.47,0,1.14,0,2.22,0,3.4,0,7.41-.01,7.65.1,8.37.32,2.05,1.03,6.69,4.86,9.37,2.69,1.89,5.71,1.99,7.07,1.99,2.4,0,4.49-.42,6.25-1.25,1.76-.84,3.21-2.06,4.33-3.65,1.32,3.17,3.81,4.8,7.46,4.9h0c.12.03.25.05.38.05,3.01,0,5.64-.88,7.91-2.63,2.26-1.75,4.02-4.2,5.26-7.36,1.24-3.15,1.86-6.83,1.86-11.03,0-.62-.02-1.25-.06-1.87,1-.08,2.49-.31,4.45-.7,1.12-.23,1.9-.39,2.34-.47.44-.08.84-.12,1.2-.12,1.04,0,1.76.35,2.16,1.05.4.7.6,1.93.6,3.68v9.05c0,3.7.84,6.35,2.52,7.97,1.69,1.62,3.75,2.43,6.19,2.43,3.52,0,7.21-1.17,11.06-3.5,1.12,1.09,2.52,1.94,4.21,2.57,1.69.62,3.49.93,5.41.93h.06c1.64,0,3.21-.22,4.69-.64,1.48-.43,2.89-1.01,4.21-1.75,1.21-.6,1.7-2.03,1.14-3.14M106.1,68.77c-1.12-1.83-1.69-4.28-1.69-7.36,0-1.99.51-3.66,1.54-5.02,1.02-1.36,2.31-2.04,3.88-2.04,1.24,0,2.21.4,2.91,1.2.7.8,1.05,1.9,1.05,3.3,0,1.52-.63,3.11-1.89,4.79-1.27,1.67-3.2,3.38-5.8,5.14"/>
      <path class="cls-1" d="M155.71,77.09c3.03-8.68,4.43-17.99,3.71-27.15-.56-7.22-1.46-15.01-5.45-21.31-2.13-3.36-5.2-6.08-8.94-7.64-2.56-1.07-5.52-1.68-8.22-.67-2.65.99-5.02,3.09-5.73,5.84-1.46,5.66,4.33,10.53,9.83,10.32,4.34-.17,8.63-2.41,12.04-4.92,6.45-4.75,10.3-11.97,12.09-19.52.12-.5.23-1.01.33-1.51.27-1.36-.4-2.93-1.91-3.26-1.35-.3-3.07.4-3.36,1.85-.51,2.51-1.22,4.99-2.19,7.37-.08.2-.17.39-.25.59-.13.31.24-.54.1-.24-.04.09-.08.18-.12.27-.18.4-.38.81-.58,1.2-.4.81-.84,1.6-1.32,2.37-.48.78-1,1.54-1.55,2.27-.07.09-.13.17-.2.26-.27.36.08-.11.12-.15-.17.19-.32.39-.48.58-.31.37-.64.72-.97,1.07-.71.74-1.46,1.43-2.25,2.07-.12.09-.23.19-.35.28-.14.11-.28.32.12-.09-.16.16-.4.29-.59.43-.43.3-.88.59-1.33.86-.63.38-1.27.76-1.93,1.11-.4.21-.8.42-1.22.61-.2.1-.41.19-.62.28-.1.04-.46.18-.07.03.43-.16-.16.06-.24.09-.47.18-.95.34-1.44.47-.23.06-.46.12-.7.17-.12.03-.23.05-.35.07-.06.01-.12.02-.18.03-.3.05-.24.04.19-.02-.12-.06-.56.05-.71.06-.24.01-.47.01-.71,0-.12,0-.24-.02-.35-.02-.47-.01.13.02.2.04-.28-.08-.58-.1-.87-.18-.16-.04-.59-.1-.68-.23.08.11.48.22.15.05-.08-.05-.17-.09-.25-.13-.2-.11-.39-.23-.58-.35-.1-.06-.34-.29-.05-.02.33.3-.03-.03-.11-.1-.19-.16-.38-.33-.56-.51-.08-.08-.16-.16-.23-.25-.02-.02-.04-.04-.06-.06-.15-.18-.15-.18,0,0,.04.04.07.09.11.13-.05-.07-.1-.14-.15-.21-.07-.1-.13-.19-.19-.29-.07-.12-.14-.25-.21-.38-.24-.42.12.38.04.07-.06-.22-.13-.45-.19-.67-.09-.35,0,.67.02.09,0-.12,0-.25,0-.37,0-.44-.01.18-.04.15-.02-.01.08-.37.08-.35.03-.12.07-.23.1-.34.16-.55-.29.48,0-.02.12-.2.24-.41.37-.61.14-.22.24-.12-.1.12.08-.05.17-.19.24-.26.16-.17.33-.33.51-.48-.02.02.27-.22.27-.22-.3.22-.37.28-.21.16.07-.05.14-.1.21-.14.18-.12.37-.23.57-.33,0,0,.27-.11.28-.14-.08.18-.52.17-.14.06.28-.08.56-.17.85-.23.16-.03.47.03.11-.02-.41-.06.08,0,.2,0,.28-.01.56,0,.84.02.7.05-.5-.1.19.02.53.1,1.05.24,1.56.41.11.04.22.08.32.11.22.08.45.28-.11-.05.17.11.39.17.58.26.38.18.75.37,1.11.57.64.35,1.25.74,1.84,1.15.37.26-.15-.1-.18-.13.05.07.17.14.25.19.18.15.36.3.54.45.35.31.68.63,1,.97.28.3.55.61.81.93.24.28-.41-.55-.09-.11.06.08.12.16.19.25.14.19.27.37.4.57.51.75.97,1.53,1.38,2.33.19.37.36.75.54,1.12.19.4-.08-.17-.09-.21.03.1.08.19.12.29.1.24.2.48.29.72.65,1.69,1.14,3.44,1.53,5.2.18.83.34,1.66.48,2.5.06.38.13.77.18,1.15.02.13.12.88.05.35-.07-.51.03.21.04.34.19,1.45.33,2.91.47,4.37.31,3.28.35,6.58.14,9.87-.07,1.02-.16,2.03-.28,3.04-.03.25-.06.5-.09.75-.02.13-.03.25-.05.38-.08.64.07-.45,0-.04-.09.59-.18,1.17-.28,1.76-.42,2.43-.97,4.84-1.66,7.21-.37,1.28-.78,2.55-1.22,3.81-.46,1.32.53,2.96,1.91,3.26,1.51.34,2.87-.44,3.36-1.85"/>
      <path class="cls-1" d="M197.27,78.56c.11,0,.23,0,.35,0,.23,0,.43-.02.62-.07-.32.03-.64.06-.97.06"/>
      <path class="cls-1" d="M287.68,73c-.51-1.01-1.76-1.54-2.94-1.18-1.08.54-2.21.97-3.37,1.29-1.16.31-2.33.47-3.49.47-2.17,0-3.89-.45-5.17-1.34,3.56-2.41,6.1-4.65,7.61-6.71,1.5-2.06,2.25-4.34,2.25-6.83,0-1.83-.38-3.44-1.14-4.84-.76-1.4-1.83-2.5-3.19-3.3-1.36-.8-2.92-1.2-4.69-1.2-2.08,0-3.95.54-5.59,1.61-1.64,1.07-2.93,2.53-3.85,4.38-.92,1.85-1.38,3.98-1.38,6.4,0,3.58.78,6.69,2.34,9.34-1.6.9-3,1.53-4.21,1.9-1.2.37-2.38.55-3.55.55-.16,0-.32.01-.46.03-.03,0-.06,0-.09,0-2.25,0-3.98-1.04-5.2-3.12-1.22-2.08-1.83-5.07-1.83-8.96v-12.08h5.59c1.39.06,2.54-.93,2.67-2.08.14-1.31-1.06-2.64-2.67-2.6h-5.59v-10.33c-.15-1.38-1.35-2.44-2.78-2.43-1.41,0-2.61,1.06-2.75,2.43v10.33h-5.4c-1.16.18-2.03,1.08-2.11,2.15-.1,1.19.81,2.32,2.11,2.53h5.4c0,1.34.01,3.27,0,5.6-.03,4.45-.04,6.68-.23,7.41-1.47,5.68-7.11,8.56-7.62,8.81-2.33,1.15-4.48,1.45-5.82,1.54.39-1.02.68-2.24.66-3.64,0-.61,0-2.57-1.23-4.64-.83-1.38-2.06-2.71-3.7-4l-4.57-3.62c-.64-.51-1.18-.97-1.62-1.4s-.8-.86-1.09-1.29c.23-.09,2.31-.93,2.85-3.05.49-1.89-.41-4.11-2.32-4.94-1.95-.84-3.98.18-5.01,1.18-1.75,1.73-1.49,4.42-1,5.85,0,0,0,.02,0,.02l-6.43,10.57c-2.08,3.42-3.9,5.9-5.47,7.44-1.43,1.41-2.75,2.18-3.95,2.29-1.02-.08-1.81-.51-2.37-1.29-.62-.88-.93-2.44-.93-4.7v-16.04c-.33-1.34-1.6-2.24-2.95-2.15-1.2.09-2.24.96-2.52,2.15v.8c-.92-.9-2.06-1.61-3.43-2.13-1.36-.53-2.74-.79-4.15-.79-2.64,0-5,.66-7.06,1.98-2.06,1.32-3.7,3.13-4.9,5.43-1.2,2.3-1.8,4.93-1.8,7.88,0,2.72.53,5.14,1.6,7.24,1.06,2.1,2.54,3.74,4.45,4.9,1.9,1.17,4.12,1.75,6.64,1.75,2,0,3.84-.41,5.5-1.23,1.66-.82,3.08-1.94,4.24-3.38.72,1.59,1.76,2.76,3.13,3.5,1.05.57,2.18.92,3.4,1.05.25.03.5.05.76.06.33,0,.65-.03.97-.06,2.08-.22,3.96-.96,5.63-2.24,2.03-1.54,4.14-4.12,6.34-7.74l6.01-9.87c.64.66,1.36,1.31,2.16,1.93l4.57,3.5c1.92,1.48,2.89,3.07,2.89,4.79,0,1.36-.5,2.48-1.5,3.36-1,.87-2.34,1.31-4.03,1.31-1.96,0-4.05-.7-6.25-2.1-1.26-.31-2.57.28-3.12,1.4-.52,1.07-.23,2.37.72,3.15,1.52.89,2.99,1.55,4.39,1.95,1.49.44,2.69.51,4.21.61,2.21.16,4.01.08,5.09,0,3.52-.26,8.21-.61,13.19-3.21,1.8-.94,4.44-2.6,7.05-5.45.5,1.7,1.57,4.28,3.85,6.24.77.66,1.44,1.05,1.69,1.19,1.5.82,3.25,1.23,5.22,1.23.15,0,.3-.01.44-.04.04,0,.07,0,.11,0,3.52,0,7.21-1.17,11.06-3.5,1.12,1.09,2.52,1.95,4.21,2.57,1.69.62,3.49.93,5.41.93h.06c1.64,0,3.21-.21,4.69-.64,1.48-.43,2.89-1.01,4.21-1.75,1.21-.6,1.7-2.03,1.14-3.14M188.9,63.68c0,2.96-.77,5.34-2.32,7.15-1.54,1.81-3.57,2.71-6.1,2.71-2.29,0-4.08-.79-5.38-2.36-1.31-1.58-1.95-3.74-1.95-6.51,0-1.98.38-3.74,1.14-5.28.76-1.54,1.8-2.75,3.12-3.65,1.32-.9,2.85-1.34,4.57-1.34,1.32,0,2.6.32,3.85.96,1.24.64,2.26,1.49,3.07,2.54v5.78ZM269.65,68.61c-1.12-1.82-1.69-4.28-1.69-7.36,0-1.98.51-3.65,1.54-5.02,1.02-1.36,2.31-2.04,3.88-2.04,1.24,0,2.21.4,2.91,1.2.7.8,1.05,1.9,1.05,3.3,0,1.52-.63,3.11-1.89,4.79-1.27,1.68-3.2,3.39-5.8,5.14"/>
      <path class="cls-1" d="M196.51,78.5c.13.04.27.06.42.06.11,0,.23,0,.34,0-.26,0-.51-.03-.76-.06"/>
    </g>
  </g>
</svg>