<?xml version="1.0" encoding="UTF-8"?>
<svg id="Capa_2" data-name="Capa 2" xmlns="http://www.w3.org/2000/svg" viewBox="0 0 54.66 55.05">
  <defs>
    <style>
      .cls-1 {
        fill: #0057ff;
      }

      .cls-1, .cls-2 {
        stroke-width: 0px;
      }

      .cls-2 {
        fill: #fff;
      }
    </style>
  </defs>
  <g id="Capa_1-2" data-name="Capa 1">
    <g>
      <rect class="cls-1" width="54.66" height="55.05" rx="9.8" ry="9.8"/>
      <g>
        <path class="cls-2" d="M23.25,36.66c.83-.17,1.55-.5,2.16-.97.54-.41.99-.91,1.36-1.52.57-.91.85-1.93.85-3.07s-.25-2.05-.75-2.82c-.5-.78-1.23-1.34-2.21-1.7.64-.33,1.13-.7,1.46-1.1.59-.71.89-1.66.89-2.84s-.29-2.12-.88-2.94c-.97-1.33-2.63-2.02-4.96-2.05h-9.25v19.27h8.62c.97,0,1.87-.09,2.7-.26ZM15.74,21h4.16c.92,0,1.67.1,2.26.3.69.29,1.03.88,1.03,1.78,0,.81-.26,1.38-.78,1.69-.52.32-1.19.48-2.02.48h-4.65v-4.25ZM15.74,33.57v-5.14h4.71c.82,0,1.46.12,1.91.33.81.37,1.22,1.06,1.22,2.07,0,1.19-.42,1.99-1.26,2.41-.46.23-1.11.34-1.94.34h-4.65Z"/>
        <g>
          <path class="cls-2" d="M30.86,35.65c1.44,1.17,3.1,1.75,4.98,1.75,2.28,0,4.06-.69,5.32-2.08.82-.87,1.27-1.73,1.37-2.58h-3.78c-.22.42-.47.74-.76.98-.53.44-1.21.65-2.05.65-.8,0-1.47-.18-2.04-.54-.93-.58-1.42-1.58-1.48-3.01h10.31c.02-1.23-.02-2.17-.12-2.83-.17-1.12-.55-2.1-1.13-2.95-.64-.96-1.46-1.66-2.45-2.11-.99-.44-2.1-.67-3.33-.67-2.07,0-3.76.66-5.06,1.98-1.3,1.32-1.95,3.21-1.95,5.68,0,2.64.72,4.54,2.16,5.71ZM33.51,26.18c.52-.54,1.26-.81,2.21-.81.87,0,1.61.26,2.2.77.59.51.92,1.26.99,2.25h-6.38c.13-.93.46-1.66.99-2.21Z"/>
          <rect class="cls-2" x="31.31" y="18.76" width="8.32" height="1.95"/>
        </g>
      </g>
    </g>
  </g>
</svg>