<?xml version="1.0" encoding="UTF-8"?>
<svg id="Capa_2" data-name="Capa 2" xmlns="http://www.w3.org/2000/svg" xmlns:xlink="http://www.w3.org/1999/xlink" viewBox="0 0 54.66 55.05">
  <defs>
    <style>
      .cls-1 {
        fill: #fff;
      }

      .cls-1, .cls-2 {
        stroke-width: 0px;
      }

      .cls-2 {
        fill: url(#Degradado_sin_nombre_2);
      }
    </style>
    <radialGradient id="Degradado_sin_nombre_2" data-name="Degradado sin nombre 2" cx="16.77" cy="-88.41" fx="16.77" fy="-88.41" r="87.69" gradientTransform="translate(-20.7 157.87) scale(1.15)" gradientUnits="userSpaceOnUse">
      <stop offset="0" stop-color="#f5ec53"/>
      <stop offset=".24" stop-color="#e48244"/>
      <stop offset=".4" stop-color="#d05667"/>
      <stop offset=".49" stop-color="#c84278"/>
      <stop offset="1" stop-color="#192cfa"/>
    </radialGradient>
  </defs>
  <g id="Capa_1-2" data-name="Capa 1">
    <g>
      <rect class="cls-2" width="54.66" height="55.05" rx="9.8" ry="9.8"/>
      <g>
        <path class="cls-1" d="M27.33,15.15c4,0,4.48.02,6.06.09,1.46.07,2.25.31,2.78.52.7.27,1.2.6,1.72,1.13.52.53.85,1.03,1.12,1.74.21.53.45,1.33.52,2.8.07,1.59.09,2.07.09,6.1s-.02,4.51-.09,6.1c-.07,1.47-.31,2.27-.52,2.8-.27.7-.6,1.21-1.12,1.74s-1.02.86-1.72,1.13c-.53.21-1.32.45-2.78.52-1.58.07-2.05.09-6.06.09s-4.48-.02-6.06-.09c-1.46-.07-2.25-.31-2.78-.52-.7-.27-1.2-.6-1.72-1.13-.52-.53-.85-1.03-1.12-1.74-.21-.53-.45-1.33-.52-2.8-.07-1.59-.09-2.07-.09-6.1s.02-4.51.09-6.1c.07-1.47.31-2.27.52-2.8.27-.7.6-1.21,1.12-1.74.52-.53,1.02-.86,1.72-1.13.53-.21,1.32-.45,2.78-.52,1.58-.07,2.05-.09,6.06-.09M27.33,12.43c-4.07,0-4.58.02-6.18.09-1.6.07-2.68.33-3.64.7-.99.39-1.82.9-2.65,1.74-.83.84-1.35,1.68-1.73,2.67-.37.96-.62,2.06-.7,3.66-.07,1.61-.09,2.12-.09,6.22s.02,4.61.09,6.22c.07,1.61.33,2.7.7,3.66.38.99.9,1.83,1.73,2.67.83.84,1.67,1.36,2.65,1.74.95.37,2.04.63,3.64.7,1.6.07,2.11.09,6.18.09s4.58-.02,6.18-.09c1.6-.07,2.68-.33,3.64-.7.99-.39,1.82-.9,2.65-1.74.83-.84,1.35-1.68,1.73-2.67.37-.96.62-2.06.7-3.66.07-1.61.09-2.12.09-6.22s-.02-4.61-.09-6.22c-.07-1.61-.33-2.7-.7-3.66-.38-.99-.9-1.83-1.73-2.67-.83-.84-1.67-1.36-2.65-1.74-.95-.37-2.04-.63-3.64-.7-1.6-.07-2.11-.09-6.18-.09"/>
        <path class="cls-1" d="M27.33,19.78c-4.25,0-7.7,3.47-7.7,7.75s3.45,7.75,7.7,7.75,7.7-3.47,7.7-7.75-3.45-7.75-7.7-7.75M27.33,32.56c-2.76,0-5-2.25-5-5.03s2.24-5.03,5-5.03,5,2.25,5,5.03-2.24,5.03-5,5.03"/>
        <path class="cls-1" d="M37.13,19.47c0,1-.81,1.81-1.8,1.81s-1.8-.81-1.8-1.81.81-1.81,1.8-1.81,1.8.81,1.8,1.81"/>
      </g>
    </g>
  </g>
</svg>