<?xml version="1.0" encoding="UTF-8"?>
<svg id="Capa_2" data-name="Capa 2" xmlns="http://www.w3.org/2000/svg" viewBox="0 0 103.48 216.05">
  <defs>
    <style>
      .cls-1 {
        fill: #f5eee2;
        stroke-width: 0px;
      }
    </style>
  </defs>
  <g id="Capa_1-2" data-name="Capa 1">
    <g>
      <path class="cls-1" d="M28.44,142.2c-1.49-4.39-2.77-8.84-3.8-13.36-.48-2.1-.9-4.21-1.27-6.33-.16-.93-.32-1.86-.46-2.8-.07-.48-.14-.97-.21-1.45-.05-.32-.04-.93.05.37-.02-.31-.08-.63-.12-.95-.82-6.54-1.11-13.15-.84-19.73.2-5.04.72-10.09,1.36-15.09.1-.77-.09.64-.09.63.01-.15.04-.31.06-.47.06-.39.11-.79.17-1.18.11-.72.22-1.44.34-2.16.25-1.48.53-2.95.85-4.42.66-3.06,1.49-6.09,2.55-9.03.25-.69.51-1.37.79-2.05.51-1.26-.4.88.05-.12.19-.43.39-.86.59-1.29.66-1.39,1.39-2.74,2.2-4.05.38-.61.78-1.22,1.19-1.81.22-.31.47-.6.67-.92-.02.03-.81,1.01-.31.41.16-.2.32-.4.48-.59.97-1.17,2.03-2.27,3.17-3.28.29-.25.58-.5.88-.74.82-.69-.98.71.11-.08.6-.43,1.21-.84,1.84-1.23,1.04-.64,2.09-1.25,3.19-1.78.34-.17.73-.3,1.05-.49-.05.03-1.2.48-.45.19.17-.07.34-.14.52-.2.86-.32,1.73-.59,2.62-.8.44-.1.89-.14,1.32-.25-.09.02-1.27.12-.43.07.2-.01.4-.03.61-.04.46-.02.92-.02,1.38,0,.69.04.44.33-.25-.07.23.13.67.12.93.18.42.1.82.23,1.23.37.85.28-.27-.08-.36-.16.14.12.4.19.57.28.35.19.69.39,1.02.61.15.1.3.21.45.31.74.51-.84-.77-.13-.09.28.26.57.51.83.78.16.17,1.13,1.23.55.59-.57-.63.02.07.11.21.11.16.21.33.3.5.1.17.18.35.27.52.48.9-.34-1.09-.05-.1.07.25.14.99.3,1.15-.33-.33-.1-1.14-.05-.27.01.25.02.5.01.75,0,.19-.06.41-.04.59,0-.1.24-1.26.04-.47-.12.46-.29.91-.41,1.37.27-1.09.35-.76.16-.41-.11.21-.22.42-.33.62-.18.31-.59.73-.69,1.06.02-.07.79-.95.26-.35-.12.14-.24.28-.37.42-.31.34-.63.66-.97.96-.16.15-.35.28-.51.44-.43.43.9-.62.39-.3-.32.2-.61.44-.93.64-.27.17-.54.32-.82.47-.2.1-.4.19-.6.3-.44.23,1.16-.43.11-.07-.41.14-.82.26-1.24.36-.45.1-1.62.16-.08.07-.91.05-1.79.12-2.71.07-.24-.01-.48-.04-.71-.06-.4-.03-.7-.25.47.07-.36-.1-.76-.12-1.14-.2-.94-.19-1.87-.45-2.79-.75-.36-.12-.72-.24-1.08-.38-.22-.08-1.55-.64-.72-.27.83.37-.51-.23-.67-.31-.41-.19-.81-.38-1.21-.58-2.48-1.24-4.88-2.68-7.17-4.24-.68-.47-1.36-.95-2.02-1.44-.15-.11-.3-.23-.45-.34-.65-.49.28.22.34.26-.36-.31-.75-.59-1.12-.9-1.4-1.15-2.76-2.36-4.06-3.61-1.29-1.24-2.54-2.54-3.74-3.88-.56-.63-1.11-1.27-1.65-1.92-.28-.34-.56-.69-.84-1.04-.23-.3-.52-.89.15.19-.15-.25-.36-.47-.53-.7-2-2.7-3.72-5.56-5.11-8.61-.33-.72.19.44.2.47-.05-.16-.13-.32-.19-.48-.15-.39-.3-.79-.44-1.19-.24-.69-.45-1.4-.62-2.11-.12-.48-.56-1.59-.4-2.07.01-.04.15,1.43.1.65-.01-.15-.03-.3-.04-.45-.03-.37-.04-.74-.05-1.1,0-.33,0-.65.03-.98.03-.5.29-1.57-.06.16.13-.65.24-1.3.45-1.94.14-.44.69-1.41-.1.12.08-.17.15-.34.24-.5.2-.4.43-.79.67-1.17.12-.18.24-.36.37-.54.53-.78-.78.95-.34.42.33-.39.65-.77,1-1.14.31-.32.63-.63.97-.92.18-.16.37-.32.55-.47.08-.07.17-.14.25-.21.55-.46-1.11.82-.49.37,1.76-1.27,3.61-2.34,5.59-3.23.12-.05.24-.1.35-.16.74-.33-1.12.46-.57.24.27-.11.55-.22.82-.33.56-.22,1.13-.42,1.7-.62,1.22-.41,2.46-.78,3.72-1.09,1.28-.32,2.56-.59,3.86-.81.63-.11,1.26-.21,1.89-.3.89-.13-1.18.15-.54.07.15-.02.3-.04.45-.06.42-.05.84-.1,1.26-.14,2.83-.28,5.68-.36,8.51-.26,1.46.05,2.91.16,4.36.31.36.04.73.08,1.09.13,1.09.13-1.33-.19.01,0,.73.11,1.46.23,2.18.36,2.95.54,5.87,1.3,8.7,2.3.66.23,1.32.48,1.97.74.19.08.38.16.57.23.56.22-1.06-.47-.51-.21.41.19.83.36,1.24.56,1.34.62,2.66,1.31,3.93,2.06,1.28.75,2.52,1.56,3.71,2.44.13.1.26.2.4.3.62.46-.4-.31-.42-.33.31.27.65.51.96.78.57.48,1.13.97,1.68,1.48,1.17,1.09,2.28,2.26,3.31,3.49.28.34.56.68.83,1.03.43.54-.75-1.03-.15-.18.12.16.24.32.35.48.56.78,1.1,1.57,1.61,2.38.99,1.58,1.88,3.21,2.66,4.9.2.43.38.87.58,1.3-.04-.09-.45-1.11-.14-.31.08.2.16.39.23.59.38.99.73,2,1.04,3.02.56,1.86,1,3.75,1.3,5.67.03.21.06.43.1.65-.23-1.29-.09-.66-.05-.35.05.49.1.98.14,1.47.08,1.04.12,2.08.12,3.13,0,1-.05,2-.13,2.99-.04.44-.13.89-.14,1.33.03-1.19.1-.66.04-.33-.06.33-.11.67-.17,1-.35,1.95-.86,3.87-1.53,5.73-.13.37-.27.73-.41,1.09-.13.34-.46.97.16-.35-.07.16-.14.32-.21.48-.33.75-.69,1.49-1.08,2.21-.73,1.38-1.54,2.71-2.44,3.99-.22.32-.45.64-.69.95-.1.14-.21.28-.31.42.8-1.13.5-.64.3-.39-.56.68-1.11,1.35-1.7,2-1.07,1.18-2.21,2.29-3.41,3.34-.57.5-1.16.98-1.76,1.45-.52.41,1.05-.78.26-.21-.15.11-.29.22-.43.32-.36.27-.73.53-1.11.78-1.36.93-2.77,1.79-4.22,2.57-.74.4-1.48.77-2.23,1.13-.34.16-.68.31-1.02.47-.17.07-.35.14-.51.22,1.31-.67.49-.21.15-.07-1.63.66-3.3,1.23-5,1.71-1.68.48-3.39.87-5.12,1.17-.44.08-.87.15-1.31.21-.2.03-.39.05-.59.08,1.39-.22.75-.1.44-.06-1,.11-1.99.21-2.99.28-3.62.23-7.26.08-10.85-.4-1.17-.16-2.74.67-3.53,1.46-.86.87-1.52,2.28-1.46,3.53.06,1.29.48,2.63,1.46,3.53,1.04.96,2.14,1.28,3.53,1.46,15.73,2.09,32.36-2.48,44.14-13.29,5.43-4.98,9.57-11.33,11.88-18.32,2.85-8.65,2.51-18.32-.38-26.91-2.61-7.76-7.08-15.08-13.24-20.54-5.3-4.7-11.54-8.08-18.25-10.3-11.98-3.96-25.76-4.3-37.89-.76-5.24,1.53-10.32,3.87-14.44,7.5C1.91,13.76-.5,19.33.09,25.1c.82,7.95,5,14.87,9.87,21.01,4.77,6.01,10.64,11.33,17.15,15.41,6.02,3.78,13.19,7.54,20.53,6.97,4.62-.36,8.88-2.27,12.09-5.65,3.51-3.69,5.36-8.76,4.04-13.81-1.16-4.41-4.69-8.28-8.79-10.18-4.56-2.12-9.68-2.07-14.37-.37-6.87,2.48-12.6,6.93-16.92,12.78-4.08,5.53-6.59,12.24-8.24,18.87-1.55,6.24-2.36,12.65-2.98,19.04-.55,5.7-.87,11.39-.7,17.12.25,8.41,1.36,16.83,3.22,25.03,1.04,4.58,2.33,9.09,3.84,13.54.84,2.47,3.47,4.35,6.14,3.48,2.45-.79,4.38-3.49,3.48-6.14"/>
      <path class="cls-1" d="M55.65,213.62c9.26-14.45,15.93-30.74,18.81-47.69,1.14-6.69,2.09-13.47,2.37-20.25.33-7.79-.23-16-3.07-23.32-2.78-7.19-7.61-13.54-14.2-17.65-4.18-2.61-9.14-3.79-14-2.66-4.4,1.03-8.82,4.05-10.76,8.21-2.76,5.91-.92,12.14,3.11,16.95,3.15,3.76,7.68,5.54,12.44,6.11,3.96.47,8.07-.16,11.92-1.1,3.53-.86,6.97-2.05,10.29-3.5,12.97-5.68,22.73-17.36,29-29.78.43-.85.84-1.7,1.24-2.57.58-1.24.88-2.48.5-3.84-.32-1.16-1.21-2.41-2.29-2.98-2.21-1.16-5.65-.74-6.83,1.79-2.04,4.39-4.45,8.63-7.27,12.57-.44.61-.9,1.2-1.34,1.81.01-.02.81-1.04.34-.44-.13.16-.25.32-.38.48-.28.35-.57.7-.86,1.05-1.06,1.27-2.18,2.5-3.34,3.69-1.22,1.23-2.49,2.41-3.82,3.52-.35.29-.7.57-1.06.86-.25.2-.74.47.36-.28-.19.13-.37.28-.55.41-.75.55-1.51,1.08-2.29,1.59-1.56,1.02-3.18,1.94-4.85,2.76-.44.21-.88.42-1.33.62-.18.08-.36.15-.54.24,1.24-.58.55-.23.23-.1-.94.38-1.89.71-2.84,1.02-2.74.89-5.52,1.69-8.37,2.14-.17.03-.35.05-.52.08,1.46-.29.79-.1.4-.06-.4.04-.8.09-1.2.12-.9.07-1.8.09-2.71.07-.45-.01-.9-.04-1.35-.09-.18-.02-.36-.05-.54-.06,1.54.08.67.09.26.01-.88-.17-1.73-.42-2.58-.71-.4-.13-.47-.4.45.2-.18-.12-.41-.19-.6-.29-.36-.19-.71-.39-1.05-.61-.19-.12-.37-.26-.56-.39-.54-.37.97.85.25.18-.33-.31-.66-.61-.97-.93-.2-.21-.38-.43-.58-.65-.24-.27-.32-.65.22.3-.26-.44-.6-.85-.86-1.29-.11-.18-.21-.37-.31-.55-.05-.1-.1-.19-.14-.28-.18-.39-.19-.38-.02.01.04.1.08.2.12.3-.08-.2-.16-.4-.23-.6-.1-.31-.2-.62-.27-.93.01.04-.12-.63-.14-.63.18.05.1,1.22.05.19-.02-.27,0-.55,0-.82-.05-1,.02.37-.08.33-.15-.06.42-1.4.4-1.55.05.55-.46.93-.17.41.16-.29.3-.57.48-.85.12-.18.3-.37.39-.57-.04.1-.81.91-.26.37.32-.32.64-.64.97-.95.3-.28.58-.23-.38.27.19-.1.37-.27.55-.39.41-.27.83-.51,1.27-.73.14-.07.34-.14.47-.23-1.03.69-.73.29-.24.11.31-.11.63-.22.95-.3.37-.1.79-.13,1.16-.26-.98.34-.88.08-.43.06.34-.01.68-.04,1.03-.04.43,0,.86.06,1.29.08-1.65-.1-.1.03.34.14.41.11.8.23,1.2.37.22.08.43.18.65.25-1.3-.38-.58-.24-.19-.05.76.37,1.49.8,2.2,1.26.32.21.63.43.94.65.14.1.82.62.08.05-.73-.56,0,0,.14.13.95.78,1.84,1.62,2.71,2.5.51.51,1,1.04,1.48,1.59.27.31.52.63.78.95-1.06-1.28.11.19.34.52.96,1.41,1.78,2.91,2.49,4.46.06.14.42.99.07.14-.35-.84,0,0,.06.15.15.38.29.76.43,1.14.32.89.6,1.8.85,2.71.46,1.67.81,3.36,1.08,5.07.04.23.07.45.1.68.1.68-.17-1.37-.05-.37.05.45.11.91.15,1.36.09.91.16,1.82.21,2.74.1,1.73.12,3.45.1,5.18-.05,3.39-.3,6.78-.68,10.15-.09.8-.19,1.61-.29,2.41-.03.26-.2,1.52-.06.5.14-1.05-.06.45-.1.69-.19,1.36-.39,2.71-.6,4.06-.93,6.12-2.33,12.17-4.2,18.08-.59,1.85-1.22,3.69-1.89,5.52-.35.94-.71,1.87-1.07,2.8-.18.45-.36.9-.55,1.35-.1.25-.21.5-.31.76-.14.35-.08.2.18-.43-.09.2-.17.41-.26.61-1.84,4.26-3.92,8.42-6.21,12.46-1.22,2.15-2.51,4.27-3.84,6.36-1.41,2.2-.53,5.6,1.79,6.83,2.47,1.31,5.32.56,6.83-1.79"/>
    </g>
  </g>
</svg>