<?xml version="1.0" encoding="UTF-8"?>
<svg id="Capa_2" data-name="Capa 2" xmlns="http://www.w3.org/2000/svg" viewBox="0 0 281.14 77.16">
  <defs>
    <style>
      .cls-1 {
        fill: #f5eee2;
        stroke-width: 0px;
      }
    </style>
  </defs>
  <g id="Capa_1-2" data-name="Capa 1">
    <g>
      <path class="cls-1" d="M15.19,73.86c-.79-2.26-1.47-4.55-2.01-6.87-.25-1.07-.48-2.14-.67-3.21-.09-.51-.18-1.03-.26-1.55-.03-.22-.07-.44-.1-.66-.01-.09-.08-.51-.02-.12.06.41-.02-.13-.03-.21-.44-3.39-.6-6.82-.47-10.24.1-2.61.37-5.22.72-7.81.01-.09.03-.18.04-.27,0-.05-.09.63-.05.34.03-.18.05-.37.08-.55.06-.4.12-.8.19-1.19.13-.77.28-1.54.45-2.3.34-1.55.76-3.08,1.31-4.58.14-.38.28-.76.44-1.14.03-.07.06-.14.09-.21.16-.4-.07.16-.09.2.11-.2.19-.42.28-.62.35-.73.73-1.44,1.15-2.13.2-.32.4-.64.62-.94.12-.16.23-.33.35-.49.05-.07.14-.16.18-.24-.1.17-.35.43-.08.11.52-.61,1.07-1.2,1.68-1.74.15-.13.31-.27.46-.39.06-.05.12-.09.18-.14.33-.27-.13.1-.17.12.38-.2.72-.51,1.09-.73.52-.31,1.04-.61,1.58-.88.18-.09.36-.17.54-.25.07-.03.14-.06.21-.09.4-.18-.14.06-.19.08.46-.12.91-.33,1.38-.45.2-.05.4-.1.61-.14-.02,0,.35-.07.35-.06,0,0-.6.05-.17.03.24-.02.49-.03.73-.03.12,0,.25,0,.37.01.5.01-.39-.09-.06-.02.22.05.43.08.65.14.12.03.24.08.37.11.51.15-.12,0-.13-.06.02.05.49.25.55.28.09.05.19.11.28.17.05.03.09.06.14.09.18.13.18.12,0,0-.04-.03-.09-.07-.13-.1.07.05.13.1.2.16.06.05.13.11.19.17.17.15.32.32.48.49.36.36-.1-.12-.09-.12.03,0,.2.29.2.28.06.1.12.2.18.3.04.08.27.54.1.16-.15-.33-.03-.05,0,.02.03.11.07.22.1.34,0-.01.09.33.07.35-.02.01-.03-.57-.04-.15,0,.11,0,.24,0,.36.02.42-.09-.18.04-.17.03,0-.19.69-.2.74-.06.26.09-.21.11-.22-.06.08-.1.21-.15.3-.11.2-.24.38-.36.57-.21.35.08-.17.11-.12,0,0-.24.27-.22.25-.17.18-.35.36-.53.52-.12.11-.35.23-.44.36.18-.29.4-.28.16-.13-.09.05-.17.11-.25.17-.16.1-.33.2-.5.29-.07.04-.25.1-.28.14.08-.08.49-.18.14-.06-.22.07-.44.15-.67.2-.12.03-.61.05-.68.13.04-.04.67-.05.19-.04-.12,0-.23.01-.35.02-.23,0-.46,0-.69,0-.13,0-.6-.12-.7-.06.15-.1.55.09.19.02-.11-.02-.23-.04-.34-.06-.46-.09-.91-.21-1.36-.35-.44-.14-.86-.33-1.3-.46.05.02.58.25.17.06-.1-.05-.2-.09-.31-.13-.2-.09-.4-.18-.59-.28-1.34-.65-2.64-1.41-3.88-2.22-.37-.24-.73-.49-1.09-.75-.09-.07-.18-.14-.27-.2,0,0,.43.33.2.15-.2-.16-.41-.31-.61-.47-.73-.58-1.44-1.2-2.13-1.83-.7-.65-1.37-1.32-2.01-2.02-.32-.35-.63-.7-.94-1.06-.13-.16-.26-.31-.39-.47-.06-.07-.29-.39-.07-.08.24.33-.06-.08-.11-.15-1.08-1.41-2-2.9-2.76-4.49-.08-.18-.07-.37.08.2-.02-.09-.08-.19-.12-.28-.06-.16-.13-.32-.19-.49-.14-.38-.26-.78-.36-1.17-.09-.34-.14-.67-.21-1.01-.06-.32.06.61.04.29,0-.09-.02-.18-.02-.26-.02-.19-.02-.39-.02-.58,0-.17,0-.34.01-.51,0-.12.07-.67,0-.16-.07.53.03-.1.05-.21.04-.18.09-.36.15-.53.08-.25.35-.64-.04.04.05-.08.08-.18.13-.26.11-.21.23-.42.36-.62.22-.33.56-.63.03-.07.18-.19.34-.39.52-.57.17-.17.34-.33.52-.48.1-.08.2-.17.3-.25.04-.03.08-.06.12-.09.33-.28-.58.41-.22.16.95-.66,1.95-1.21,3.02-1.69.49-.22-.29.11-.15.06.15-.06.3-.12.44-.17.32-.12.65-.24.98-.34.64-.21,1.29-.39,1.95-.55.67-.16,1.34-.3,2.01-.41.18-.03.36-.06.54-.09.1-.02.79-.11.26-.04-.5.06.07,0,.2-.02.21-.02.42-.05.62-.07,1.52-.15,3.06-.19,4.59-.14.79.03,1.57.08,2.35.16.2.02.39.04.59.07.59.07-.51-.08-.04,0,.42.06.83.12,1.25.2,1.57.28,3.12.68,4.63,1.19.35.12.7.25,1.05.38.09.04.18.08.28.11-.66-.21-.38-.16-.22-.09.21.09.41.18.61.27.72.33,1.43.68,2.12,1.08.69.39,1.36.82,2,1.28.06.04.12.09.18.13.35.25-.15-.11-.18-.14.14.13.32.24.47.37.33.26.65.54.96.82.63.58,1.23,1.19,1.78,1.84.13.15.31.3.39.47-.23-.45-.2-.26-.09-.11.07.09.14.19.21.28.29.38.56.78.82,1.18.53.82,1.02,1.68,1.44,2.56.11.22.23.45.31.68-.25-.66.04.12.09.25.18.47.35.94.5,1.42.31.97.55,1.96.71,2.96.02.12.05.26.06.38-.04-.61-.03-.25-.02-.11.03.26.05.51.07.77.04.52.06,1.03.06,1.55,0,.52-.03,1.04-.07,1.56-.02.23-.05.46-.07.69-.04.38.08-.47.01-.1-.03.16-.05.33-.08.49-.19,1.01-.47,2.01-.83,2.98-.07.19-.15.38-.22.57-.07.17-.23.35.09-.19-.05.09-.09.19-.13.28-.17.37-.35.74-.55,1.09-.39.72-.83,1.41-1.31,2.08-.12.17-.25.33-.37.5-.11.15-.3.25.13-.16-.07.07-.14.17-.2.24-.27.32-.54.63-.83.94-.58.61-1.19,1.2-1.84,1.74-.16.14-.33.27-.49.41-.09.07-.57.44-.24.19.36-.26-.25.18-.32.23-.2.14-.4.28-.6.41-.73.49-1.49.93-2.27,1.34-.37.19-.75.38-1.13.55-.2.09-.41.19-.62.27-.09.04-.45.19-.07.03.42-.17-.11.04-.16.06-.86.33-1.73.62-2.62.86-.91.25-1.82.45-2.75.61-.23.04-.47.08-.71.11-.49.07.59-.07-.1.01-.51.06-1.02.1-1.54.14-1.94.12-3.89.04-5.81-.21-.62-.08-1.46.35-1.88.76-.46.45-.81,1.18-.78,1.82.03.67.26,1.36.78,1.82.56.5,1.14.66,1.88.76,8.41,1.08,17.3-1.29,23.6-6.89,2.91-2.59,5.13-5.89,6.36-9.53,1.53-4.51,1.34-9.55-.23-14.02-1.4-4.02-3.79-7.8-7.07-10.62-2.85-2.45-6.2-4.2-9.81-5.35C24.81-.4,17.43-.57,10.94,1.3c-2.79.8-5.52,2.03-7.7,3.93C.96,7.23-.28,10.13.06,13.12c.46,4.1,2.69,7.67,5.29,10.84,2.56,3.12,5.71,5.89,9.2,8.01,3.24,1.97,7.13,3.94,11.08,3.57,2.43-.23,4.67-1.22,6.35-2.97,1.85-1.94,2.86-4.61,2.07-7.23-.72-2.39-2.7-4.36-5.04-5.32-2.34-.96-4.97-.86-7.34-.02-3.65,1.3-6.7,3.59-9,6.62-2.19,2.88-3.53,6.37-4.41,9.82-.83,3.23-1.26,6.54-1.59,9.85-.74,7.34-.34,14.65,1.34,21.86.56,2.39,1.25,4.75,2.06,7.07.45,1.28,1.85,2.25,3.27,1.8,1.3-.41,2.33-1.81,1.86-3.17"/>
      <path class="cls-1" d="M121.22,71.44c-.5-.99-1.72-1.5-2.87-1.15-1.06.54-2.15.95-3.29,1.26-1.14.31-2.27.46-3.4.46-2.11,0-3.8-.44-5.05-1.31,3.48-2.36,5.96-4.54,7.43-6.56,1.46-2.02,2.2-4.24,2.2-6.67,0-1.79-.37-3.36-1.12-4.73-.75-1.37-1.78-2.44-3.11-3.22-1.33-.78-2.86-1.17-4.58-1.17-2.03,0-3.86.52-5.46,1.57-1.61,1.05-2.86,2.47-3.76,4.28-.9,1.8-1.35,3.89-1.35,6.24,0,3.5.76,6.54,2.29,9.12-1.56.87-2.93,1.49-4.11,1.85-1.18.36-2.33.54-3.46.54s-2.06-.43-2.67-1.28c-.61-.85-.91-2.38-.91-4.59v-9.18c0-2.62-.61-4.7-1.82-6.24-1.21-1.54-2.87-2.31-4.99-2.31-.55,0-1.2.05-1.97.14-.76.1-1.77.28-3.02.54-2,.46-3.58.71-4.76.74.48-1.63-.04-3.33-1.28-4.27-1.03-.78-2.66-1.15-3.97-.44-1.33.72-1.62,2.19-1.71,2.64-.54,2.76,1.83,4.97,2.09,5.2.1.36.21.84.29,1.43,0,0,.12.88.12,1.88,0,2.92-.4,5.59-1.2,7.98-.8,2.4-1.88,4.29-3.23,5.67-1.27,1.31-2.71,2-4.3,2.08-.1-.02-.22-.03-.34-.03-1.53,0-2.61-.56-3.26-1.69-.65-1.12-.97-2.69-.97-4.7v-14.6c-.06-1.52-1.4-2.68-2.86-2.58-1.33.09-2.44,1.2-2.49,2.58v8.91c0,7.94-2.8,11.91-8.4,11.91-2.35,0-4.07-.75-5.17-2.25-1.09-1.5-1.65-3.9-1.65-7.21v-8.05c-.19-1.51-1.57-2.56-2.98-2.41-1.2.13-2.22,1.13-2.37,2.41,0,1.12,0,2.16,0,3.32,0,7.24-.01,7.47.1,8.17.31,2,1,6.53,4.75,9.15,2.63,1.84,5.57,1.95,6.9,1.95,2.35,0,4.38-.41,6.1-1.22,1.72-.82,3.13-2.01,4.23-3.56,1.29,3.09,3.72,4.69,7.28,4.78h0c.12.03.24.05.37.05,2.94,0,5.51-.86,7.72-2.57,2.21-1.71,3.92-4.1,5.14-7.18,1.21-3.08,1.82-6.67,1.82-10.77,0-.61-.02-1.22-.06-1.82.98-.08,2.43-.31,4.35-.69,1.09-.23,1.86-.38,2.29-.46.43-.08.82-.11,1.18-.11,1.02,0,1.72.34,2.11,1.02.39.69.59,1.88.59,3.59v8.84c0,3.61.82,6.2,2.46,7.78,1.65,1.58,3.66,2.37,6.05,2.37,3.44,0,7.04-1.14,10.8-3.42,1.09,1.06,2.46,1.9,4.11,2.51,1.65.61,3.4.91,5.28.91h.06c1.6,0,3.13-.21,4.58-.63,1.45-.42,2.82-.99,4.11-1.71,1.18-.59,1.66-1.98,1.11-3.07M103.61,67.15c-1.1-1.79-1.65-4.18-1.65-7.18,0-1.94.5-3.57,1.5-4.9,1-1.33,2.26-2,3.79-2,1.21,0,2.16.39,2.84,1.17.69.78,1.03,1.85,1.03,3.22,0,1.49-.62,3.04-1.85,4.68-1.24,1.63-3.12,3.3-5.67,5.02"/>
      <path class="cls-1" d="M152.05,75.27c2.96-8.48,4.32-17.57,3.62-26.51-.55-7.05-1.43-14.66-5.32-20.81-2.08-3.28-5.08-5.93-8.73-7.46-2.5-1.04-5.39-1.64-8.03-.65-2.59.97-4.9,3.01-5.6,5.7-1.43,5.53,4.23,10.28,9.6,10.07,4.24-.16,8.43-2.35,11.75-4.8,6.3-4.64,10.06-11.69,11.81-19.06.12-.49.22-.98.32-1.48.27-1.33-.39-2.86-1.86-3.19-1.32-.29-3,.39-3.28,1.81-.49,2.45-1.19,4.87-2.14,7.2-.08.19-.16.38-.24.57-.12.3.24-.53.1-.23-.04.09-.08.17-.12.26-.18.4-.37.79-.56,1.18-.39.79-.82,1.56-1.28,2.31-.47.76-.97,1.5-1.51,2.22-.06.09-.13.17-.2.26-.27.35.08-.1.12-.14-.16.18-.31.38-.47.57-.31.36-.62.71-.95,1.05-.69.72-1.42,1.4-2.2,2.03-.11.09-.23.18-.34.27-.14.11-.27.32.12-.08-.16.16-.39.29-.58.42-.42.29-.86.57-1.3.84-.62.37-1.24.74-1.88,1.08-.39.21-.79.41-1.19.6-.2.09-.4.18-.6.27-.09.04-.45.17-.07.03.42-.15-.16.06-.24.09-.46.17-.93.33-1.41.46-.23.06-.45.12-.68.17-.11.02-.23.05-.34.07-.06,0-.12.02-.17.03-.29.04-.23.04.19-.02-.12-.06-.55.05-.7.06-.23.01-.46.01-.7,0-.12,0-.23-.02-.35-.02-.46-.01.12.02.19.04-.28-.08-.57-.1-.85-.18-.15-.04-.58-.1-.67-.22.08.11.47.22.15.04-.08-.04-.17-.08-.25-.13-.2-.11-.38-.23-.57-.35-.1-.06-.33-.28-.05-.02.32.29-.03-.03-.11-.09-.19-.16-.37-.33-.54-.5-.08-.08-.15-.16-.23-.24-.02-.02-.04-.04-.06-.06-.14-.17-.15-.17,0,0,.03.04.07.09.1.13-.05-.07-.1-.14-.15-.21-.06-.09-.12-.19-.18-.28-.07-.12-.14-.25-.21-.37-.23-.41.11.37.04.07-.06-.22-.12-.44-.18-.66-.09-.34,0,.65.02.08,0-.12,0-.24,0-.36,0-.43-.01.17-.04.15-.02-.01.08-.36.07-.35.03-.11.07-.22.1-.34.16-.54-.28.46,0-.02.12-.2.23-.4.36-.59.14-.21.23-.11-.1.11.08-.05.16-.19.23-.26.16-.17.32-.32.5-.47-.02.02.26-.21.26-.21-.3.22-.36.27-.2.16.07-.05.14-.09.21-.14.18-.11.36-.22.55-.32,0,0,.26-.11.28-.13-.08.17-.51.17-.13.06.28-.08.55-.17.83-.22.15-.03.45.03.11-.02-.4-.06.08,0,.2,0,.27,0,.55,0,.82.02.69.05-.48-.1.19.02.52.09,1.02.23,1.52.4.11.04.21.07.32.11.22.08.44.28-.11-.05.17.1.38.17.57.25.37.17.73.36,1.08.56.62.35,1.22.72,1.8,1.13.36.25-.15-.1-.17-.13.05.06.17.13.24.19.18.14.35.29.52.44.34.3.67.62.98.95.28.29.53.6.8.9.23.27-.4-.54-.09-.11.06.08.12.16.18.24.13.18.27.37.39.55.5.73.95,1.49,1.35,2.28.18.36.35.73.53,1.1.18.39-.07-.16-.09-.2.03.09.08.19.12.28.1.23.19.47.28.71.63,1.65,1.11,3.36,1.49,5.08.18.81.33,1.63.47,2.44.06.37.12.75.18,1.12.02.12.12.86.05.34-.07-.5.03.21.04.33.18,1.42.33,2.84.46,4.26.3,3.2.35,6.43.13,9.64-.07.99-.16,1.98-.27,2.97-.03.24-.06.49-.09.73-.02.12-.03.25-.05.37-.08.62.07-.44,0-.04-.09.57-.17,1.14-.27,1.71-.41,2.37-.95,4.73-1.62,7.04-.36,1.25-.76,2.49-1.19,3.72-.45,1.28.52,2.89,1.86,3.19,1.48.33,2.8-.43,3.28-1.81"/>
      <path class="cls-1" d="M192.63,76.71c.11,0,.22,0,.34,0,.22,0,.42-.02.6-.07-.31.03-.62.05-.94.06"/>
      <path class="cls-1" d="M280.91,71.28c-.5-.99-1.72-1.5-2.87-1.15-1.06.53-2.15.95-3.29,1.26-1.14.3-2.27.46-3.4.46-2.11,0-3.8-.44-5.05-1.31,3.48-2.36,5.96-4.54,7.43-6.56,1.46-2.01,2.2-4.24,2.2-6.67,0-1.79-.37-3.36-1.12-4.73-.75-1.37-1.78-2.44-3.11-3.22-1.33-.78-2.86-1.17-4.58-1.17-2.03,0-3.86.52-5.46,1.57-1.6,1.05-2.86,2.47-3.76,4.28-.9,1.81-1.35,3.89-1.35,6.25,0,3.49.76,6.53,2.29,9.12-1.56.87-2.93,1.49-4.11,1.85-1.18.36-2.33.54-3.46.54-.16,0-.31.01-.45.03-.03,0-.06,0-.09,0-2.19,0-3.89-1.02-5.08-3.05-1.19-2.03-1.79-4.95-1.79-8.75v-11.8h5.46c1.36.05,2.48-.9,2.61-2.03.14-1.28-1.04-2.58-2.61-2.54h-5.46v-10.09c-.14-1.35-1.32-2.38-2.71-2.38-1.38,0-2.55,1.04-2.69,2.38v10.09h-5.28c-1.13.17-1.98,1.05-2.06,2.1-.09,1.16.79,2.27,2.06,2.47h5.28c0,1.31.01,3.19,0,5.47-.03,4.34-.04,6.53-.23,7.24-1.44,5.55-6.94,8.36-7.44,8.61-2.27,1.12-4.38,1.42-5.68,1.51.38-.99.67-2.19.65-3.56,0-.59,0-2.51-1.2-4.53-.81-1.35-2.01-2.65-3.61-3.9l-4.46-3.53c-.63-.49-1.15-.95-1.59-1.37s-.78-.84-1.06-1.26c.23-.09,2.25-.91,2.79-2.98.47-1.84-.4-4.02-2.27-4.82-1.9-.82-3.89.17-4.89,1.15-1.71,1.69-1.46,4.31-.97,5.71,0,0,0,.02,0,.02l-6.28,10.32c-2.03,3.34-3.81,5.76-5.34,7.27-1.4,1.38-2.69,2.13-3.86,2.23-1-.08-1.77-.5-2.31-1.26-.6-.86-.91-2.38-.91-4.59v-15.66c-.32-1.31-1.56-2.19-2.88-2.1-1.17.08-2.18.94-2.46,2.1v.78c-.9-.87-2.02-1.57-3.35-2.08-1.33-.51-2.68-.77-4.05-.77-2.58,0-4.88.64-6.9,1.94-2.02,1.29-3.61,3.06-4.79,5.3-1.17,2.24-1.76,4.81-1.76,7.7,0,2.66.52,5.02,1.56,7.07,1.03,2.05,2.48,3.65,4.34,4.79,1.86,1.14,4.02,1.71,6.49,1.71,1.96,0,3.75-.4,5.37-1.2,1.62-.8,3-1.9,4.14-3.3.71,1.56,1.72,2.7,3.05,3.42,1.03.56,2.13.9,3.32,1.02.25.03.49.05.74.05.32,0,.63-.03.94-.06,2.03-.21,3.86-.94,5.5-2.18,1.98-1.5,4.04-4.02,6.2-7.56l5.87-9.63c.62.65,1.33,1.28,2.11,1.88l4.46,3.42c1.88,1.44,2.82,3,2.82,4.67,0,1.33-.49,2.42-1.47,3.28-.98.85-2.29,1.28-3.93,1.28-1.92,0-3.95-.68-6.1-2.05-1.23-.31-2.51.28-3.05,1.37-.51,1.05-.23,2.32.7,3.08,1.49.87,2.92,1.51,4.29,1.91,1.46.43,2.62.49,4.11.6,2.15.15,3.91.07,4.97,0,3.43-.25,8.02-.59,12.88-3.13,1.76-.92,4.33-2.54,6.89-5.32.49,1.66,1.53,4.18,3.76,6.09.75.65,1.41,1.03,1.65,1.16,1.47.8,3.17,1.2,5.1,1.2.15,0,.3-.01.43-.04.03,0,.07,0,.11,0,3.44,0,7.04-1.14,10.8-3.42,1.09,1.07,2.46,1.9,4.11,2.51,1.65.61,3.4.91,5.29.91h.06c1.6,0,3.13-.21,4.58-.63,1.45-.42,2.82-.99,4.11-1.71,1.18-.59,1.66-1.98,1.11-3.07M184.46,62.18c0,2.89-.75,5.22-2.26,6.99-1.5,1.77-3.49,2.65-5.96,2.65-2.23,0-3.98-.77-5.25-2.31-1.28-1.54-1.91-3.66-1.91-6.35,0-1.94.37-3.66,1.12-5.16.74-1.5,1.76-2.69,3.05-3.56,1.29-.87,2.78-1.31,4.46-1.31,1.29,0,2.54.31,3.76.94,1.21.63,2.21,1.46,2.99,2.48v5.64ZM263.3,66.99c-1.1-1.78-1.65-4.18-1.65-7.18,0-1.94.5-3.57,1.5-4.9,1-1.33,2.26-1.99,3.79-1.99,1.21,0,2.16.39,2.84,1.17.68.78,1.03,1.85,1.03,3.22,0,1.48-.62,3.04-1.85,4.67-1.24,1.64-3.12,3.31-5.67,5.02"/>
      <path class="cls-1" d="M191.88,76.66c.13.04.26.06.41.06.11,0,.22,0,.34,0-.25,0-.5-.03-.75-.05"/>
    </g>
  </g>
</svg>